<mxfile host="app.diagrams.net" modified="2023-06-18T06:11:08.758Z" agent="Mozilla/5.0 (Windows NT 10.0; Win64; x64) AppleWebKit/537.36 (KHTML, like Gecko) Chrome/114.0.0.0 Safari/537.36" etag="fK3CbhpbxVv3WE3I63as" version="21.4.0" type="device">
  <diagram name="Page-1" id="42eCZd0SApIl8Cvrx7na">
    <mxGraphModel dx="2762" dy="1641" grid="1" gridSize="10" guides="1" tooltips="1" connect="1" arrows="1" fold="1" page="1" pageScale="1" pageWidth="850" pageHeight="1100" math="0" shadow="0">
      <root>
        <mxCell id="0" />
        <mxCell id="1" parent="0" />
        <mxCell id="qqYguHeqG1et18vwYGOu-8" value="i" style="ellipse;whiteSpace=wrap;html=1;aspect=fixed;" vertex="1" parent="1">
          <mxGeometry x="100" y="230" width="40" height="40" as="geometry" />
        </mxCell>
        <mxCell id="qqYguHeqG1et18vwYGOu-9" value="p" style="ellipse;whiteSpace=wrap;html=1;aspect=fixed;" vertex="1" parent="1">
          <mxGeometry x="220" y="230" width="40" height="40" as="geometry" />
        </mxCell>
        <mxCell id="qqYguHeqG1et18vwYGOu-10" value="q" style="ellipse;whiteSpace=wrap;html=1;aspect=fixed;" vertex="1" parent="1">
          <mxGeometry x="340" y="230" width="40" height="40" as="geometry" />
        </mxCell>
        <mxCell id="qqYguHeqG1et18vwYGOu-11" value="" style="group" vertex="1" connectable="0" parent="1">
          <mxGeometry x="460" y="230" width="40" height="40" as="geometry" />
        </mxCell>
        <mxCell id="qqYguHeqG1et18vwYGOu-6" value="" style="ellipse;whiteSpace=wrap;html=1;aspect=fixed;" vertex="1" parent="qqYguHeqG1et18vwYGOu-11">
          <mxGeometry width="40" height="40" as="geometry" />
        </mxCell>
        <mxCell id="qqYguHeqG1et18vwYGOu-5" value="f" style="ellipse;whiteSpace=wrap;html=1;aspect=fixed;" vertex="1" parent="qqYguHeqG1et18vwYGOu-11">
          <mxGeometry x="5" y="5" width="30" height="30" as="geometry" />
        </mxCell>
        <mxCell id="qqYguHeqG1et18vwYGOu-12" value="" style="endArrow=classic;html=1;rounded=0;" edge="1" parent="1" source="qqYguHeqG1et18vwYGOu-8" target="qqYguHeqG1et18vwYGOu-9">
          <mxGeometry width="50" height="50" relative="1" as="geometry">
            <mxPoint x="220" y="190" as="sourcePoint" />
            <mxPoint x="270" y="140" as="targetPoint" />
          </mxGeometry>
        </mxCell>
        <mxCell id="qqYguHeqG1et18vwYGOu-13" value="" style="endArrow=classic;html=1;rounded=0;" edge="1" parent="1" source="qqYguHeqG1et18vwYGOu-9" target="qqYguHeqG1et18vwYGOu-10">
          <mxGeometry width="50" height="50" relative="1" as="geometry">
            <mxPoint x="158" y="302" as="sourcePoint" />
            <mxPoint x="232" y="268" as="targetPoint" />
          </mxGeometry>
        </mxCell>
        <mxCell id="qqYguHeqG1et18vwYGOu-14" value="" style="endArrow=classic;html=1;rounded=0;" edge="1" parent="1" source="qqYguHeqG1et18vwYGOu-10" target="qqYguHeqG1et18vwYGOu-6">
          <mxGeometry width="50" height="50" relative="1" as="geometry">
            <mxPoint x="270" y="260" as="sourcePoint" />
            <mxPoint x="350" y="260" as="targetPoint" />
          </mxGeometry>
        </mxCell>
        <mxCell id="qqYguHeqG1et18vwYGOu-15" value="λ, λ ; #" style="text;html=1;align=center;verticalAlign=middle;resizable=0;points=[];autosize=1;strokeColor=none;fillColor=none;" vertex="1" parent="1">
          <mxGeometry x="150" y="220" width="60" height="30" as="geometry" />
        </mxCell>
        <mxCell id="qqYguHeqG1et18vwYGOu-16" value="λ, λ ; S" style="text;html=1;align=center;verticalAlign=middle;resizable=0;points=[];autosize=1;strokeColor=none;fillColor=none;" vertex="1" parent="1">
          <mxGeometry x="270" y="220" width="60" height="30" as="geometry" />
        </mxCell>
        <mxCell id="qqYguHeqG1et18vwYGOu-17" value="λ,&amp;nbsp; # ; λ" style="text;html=1;align=center;verticalAlign=middle;resizable=0;points=[];autosize=1;strokeColor=none;fillColor=none;" vertex="1" parent="1">
          <mxGeometry x="390" y="220" width="60" height="30" as="geometry" />
        </mxCell>
        <mxCell id="qqYguHeqG1et18vwYGOu-18" value="&lt;div&gt;&lt;div&gt;λ, S ; &quot;for&quot; F A &quot;{&quot; G &quot;}&quot;&lt;/div&gt;&lt;div&gt;λ, A ; &quot;=&quot; E &quot;;&quot; B&amp;nbsp;&quot;;&quot; F C&amp;nbsp;&lt;/div&gt;&lt;div&gt;λ, A ; D E&lt;/div&gt;&lt;div&gt;λ, B ; F D E&lt;/div&gt;&lt;div&gt;λ, C ; &quot;++&quot;&lt;/div&gt;&lt;div&gt;λ, C ; &quot;--&quot;&lt;/div&gt;&lt;div&gt;λ, D ; &quot;==&quot;&lt;/div&gt;&lt;div&gt;λ, D ; &quot;!=&quot;&lt;/div&gt;&lt;div&gt;λ, D ; &quot;&amp;gt;&quot;&lt;/div&gt;&lt;div&gt;λ, D ; &quot;&amp;lt;&quot;&lt;/div&gt;&lt;div&gt;λ, D ; &quot;&amp;gt;=&quot;&lt;/div&gt;&lt;div&gt;λ, D ; &quot;&amp;lt;=&quot;&lt;/div&gt;&lt;div&gt;λ, E ; &quot;a&quot;&lt;/div&gt;&lt;div&gt;λ, E ; &quot;b&quot;&lt;/div&gt;&lt;div&gt;λ, E ; &quot;c&quot;&lt;/div&gt;&lt;div&gt;λ, E ; &quot;0&quot;&lt;/div&gt;&lt;div&gt;λ, E ; &quot;1&quot;&lt;/div&gt;&lt;div&gt;λ, E ; &quot;2&quot;&lt;/div&gt;&lt;div&gt;λ, E ; &quot;true&quot;&lt;/div&gt;&lt;div&gt;λ, E ; &quot;false&quot;&lt;/div&gt;&lt;div&gt;λ, F ; &quot;a&quot;&lt;/div&gt;&lt;div&gt;λ, F ; &quot;b&quot;&lt;/div&gt;&lt;div&gt;λ, F ; &quot;c&quot;&lt;/div&gt;&lt;div&gt;λ, G ; &quot;fmt.Print(a)&quot;&lt;/div&gt;&lt;div&gt;λ, G ; &quot;a=a+b&quot;&lt;/div&gt;&lt;/div&gt;&lt;div&gt;&lt;br&gt;&lt;/div&gt;" style="text;html=1;align=center;verticalAlign=middle;resizable=0;points=[];autosize=1;strokeColor=none;fillColor=none;" vertex="1" parent="1">
          <mxGeometry x="280" y="-165" width="150" height="390" as="geometry" />
        </mxCell>
        <mxCell id="qqYguHeqG1et18vwYGOu-20" value="" style="curved=1;endArrow=classic;html=1;rounded=0;" edge="1" parent="1" source="qqYguHeqG1et18vwYGOu-10" target="qqYguHeqG1et18vwYGOu-10">
          <mxGeometry width="50" height="50" relative="1" as="geometry">
            <mxPoint x="220" y="150" as="sourcePoint" />
            <mxPoint x="270" y="100" as="targetPoint" />
            <Array as="points">
              <mxPoint x="380" y="220" />
              <mxPoint x="370" y="200" />
              <mxPoint x="340" y="210" />
            </Array>
          </mxGeometry>
        </mxCell>
        <mxCell id="qqYguHeqG1et18vwYGOu-22" value="" style="curved=1;endArrow=classic;html=1;rounded=0;" edge="1" parent="1" source="qqYguHeqG1et18vwYGOu-10" target="qqYguHeqG1et18vwYGOu-10">
          <mxGeometry width="50" height="50" relative="1" as="geometry">
            <mxPoint x="371" y="313" as="sourcePoint" />
            <mxPoint x="351" y="312" as="targetPoint" />
            <Array as="points">
              <mxPoint x="380" y="290" />
              <mxPoint x="360" y="300" />
              <mxPoint x="340" y="290" />
            </Array>
          </mxGeometry>
        </mxCell>
        <mxCell id="qqYguHeqG1et18vwYGOu-24" value="&lt;div&gt;&lt;div&gt;&lt;div&gt;&quot;for&quot;, &quot;for&quot; ; λ&lt;/div&gt;&lt;div&gt;&quot;;&quot;, &quot;;&quot; ; λ&lt;/div&gt;&lt;div&gt;&quot;=&quot;, &quot;=&quot; ; λ&lt;/div&gt;&lt;div&gt;&quot;++&quot;, &quot;++&quot; ; λ&lt;/div&gt;&lt;div&gt;&quot;--&quot;, &quot;--&quot; ; λ&lt;/div&gt;&lt;div&gt;&quot;{&quot;, &quot;{&quot; ; λ&lt;/div&gt;&lt;div&gt;&quot;}&quot;, &quot;}&quot; ; λ&lt;/div&gt;&lt;div&gt;&quot;==&quot;, &quot;==&quot;; λ&lt;/div&gt;&lt;div&gt;&quot;!=&quot;, &quot;!=&quot;; λ&lt;/div&gt;&lt;div&gt;&quot;&amp;gt;&quot;, &quot;&amp;gt;&quot;; λ&lt;/div&gt;&lt;div&gt;&quot;&amp;lt;&quot;, &quot;&amp;lt;&quot;; λ&lt;/div&gt;&lt;div&gt;&quot;&amp;gt;=&quot;, &quot;&amp;gt;=&quot;; λ&lt;/div&gt;&lt;div&gt;&quot;&amp;lt;=&quot;, &quot;&amp;lt;=&quot;; λ&lt;/div&gt;&lt;div&gt;&quot;a&quot;, &quot;a&quot;; λ&lt;/div&gt;&lt;div&gt;&quot;b&quot;, &quot;b&quot;; λ&lt;/div&gt;&lt;div&gt;&quot;c&quot;, &quot;c&quot;; λ&lt;/div&gt;&lt;div&gt;&quot;0&quot;, &quot;0&quot;; λ&lt;/div&gt;&lt;div&gt;&quot;1&quot;, &quot;1&quot;; λ&lt;/div&gt;&lt;div&gt;&quot;2&quot;, &quot;2&quot;; λ&lt;/div&gt;&lt;div&gt;&quot;true&quot;, &quot;true&quot;; λ&lt;/div&gt;&lt;div&gt;&quot;false&quot;, &quot;false&quot;; λ&lt;/div&gt;&lt;div&gt;&quot;fmt.Print(a)&quot;, &quot;fmt.Print(a)&quot;; λ&lt;/div&gt;&lt;div&gt;&quot;a=a+b&quot;, &quot;a=a+b&quot;; λ&lt;/div&gt;&lt;/div&gt;&lt;/div&gt;&lt;div&gt;&lt;br&gt;&lt;/div&gt;" style="text;html=1;align=center;verticalAlign=middle;resizable=0;points=[];autosize=1;strokeColor=none;fillColor=none;" vertex="1" parent="1">
          <mxGeometry x="270" y="290" width="180" height="360" as="geometry" />
        </mxCell>
        <mxCell id="qqYguHeqG1et18vwYGOu-25" value="q0" style="ellipse;whiteSpace=wrap;html=1;aspect=fixed;" vertex="1" parent="1">
          <mxGeometry x="-1270" y="90" width="40" height="40" as="geometry" />
        </mxCell>
        <mxCell id="qqYguHeqG1et18vwYGOu-26" value="q1" style="ellipse;whiteSpace=wrap;html=1;aspect=fixed;" vertex="1" parent="1">
          <mxGeometry x="-1200" y="90" width="40" height="40" as="geometry" />
        </mxCell>
        <mxCell id="qqYguHeqG1et18vwYGOu-28" value="" style="group" vertex="1" connectable="0" parent="1">
          <mxGeometry x="-920" y="320" width="40" height="40" as="geometry" />
        </mxCell>
        <mxCell id="qqYguHeqG1et18vwYGOu-29" value="" style="ellipse;whiteSpace=wrap;html=1;aspect=fixed;" vertex="1" parent="qqYguHeqG1et18vwYGOu-28">
          <mxGeometry width="40" height="40" as="geometry" />
        </mxCell>
        <mxCell id="qqYguHeqG1et18vwYGOu-30" value="q16" style="ellipse;whiteSpace=wrap;html=1;aspect=fixed;" vertex="1" parent="qqYguHeqG1et18vwYGOu-28">
          <mxGeometry x="5" y="5" width="30" height="30" as="geometry" />
        </mxCell>
        <mxCell id="qqYguHeqG1et18vwYGOu-31" value="" style="endArrow=classic;html=1;rounded=0;" edge="1" parent="1" source="qqYguHeqG1et18vwYGOu-25" target="qqYguHeqG1et18vwYGOu-26">
          <mxGeometry width="50" height="50" relative="1" as="geometry">
            <mxPoint x="-1200" y="50" as="sourcePoint" />
            <mxPoint x="-1150" as="targetPoint" />
          </mxGeometry>
        </mxCell>
        <mxCell id="qqYguHeqG1et18vwYGOu-32" value="" style="endArrow=classic;html=1;rounded=0;" edge="1" parent="1" source="qqYguHeqG1et18vwYGOu-26" target="qqYguHeqG1et18vwYGOu-41">
          <mxGeometry width="50" height="50" relative="1" as="geometry">
            <mxPoint x="-1262" y="162" as="sourcePoint" />
            <mxPoint x="-1117" y="71" as="targetPoint" />
          </mxGeometry>
        </mxCell>
        <mxCell id="qqYguHeqG1et18vwYGOu-34" value="for" style="text;html=1;align=center;verticalAlign=middle;resizable=0;points=[];autosize=1;strokeColor=none;fillColor=none;" vertex="1" parent="1">
          <mxGeometry x="-1240" y="80" width="40" height="30" as="geometry" />
        </mxCell>
        <mxCell id="qqYguHeqG1et18vwYGOu-41" value="q2" style="ellipse;whiteSpace=wrap;html=1;aspect=fixed;" vertex="1" parent="1">
          <mxGeometry x="-1140" y="50" width="40" height="40" as="geometry" />
        </mxCell>
        <mxCell id="qqYguHeqG1et18vwYGOu-43" value="a,b,c" style="text;html=1;align=center;verticalAlign=middle;resizable=0;points=[];autosize=1;strokeColor=none;fillColor=none;" vertex="1" parent="1">
          <mxGeometry x="-1190" y="60" width="50" height="30" as="geometry" />
        </mxCell>
        <mxCell id="qqYguHeqG1et18vwYGOu-44" value="q3" style="ellipse;whiteSpace=wrap;html=1;aspect=fixed;" vertex="1" parent="1">
          <mxGeometry x="-1077" y="10" width="40" height="40" as="geometry" />
        </mxCell>
        <mxCell id="qqYguHeqG1et18vwYGOu-45" value="" style="endArrow=classic;html=1;rounded=0;" edge="1" parent="1" target="qqYguHeqG1et18vwYGOu-25">
          <mxGeometry width="50" height="50" relative="1" as="geometry">
            <mxPoint x="-1290" y="110" as="sourcePoint" />
            <mxPoint x="-1010" y="50" as="targetPoint" />
          </mxGeometry>
        </mxCell>
        <mxCell id="qqYguHeqG1et18vwYGOu-46" value="" style="endArrow=classic;html=1;rounded=0;" edge="1" parent="1" source="qqYguHeqG1et18vwYGOu-41" target="qqYguHeqG1et18vwYGOu-44">
          <mxGeometry width="50" height="50" relative="1" as="geometry">
            <mxPoint x="-1110" y="28.999999999999773" as="sourcePoint" />
            <mxPoint x="-1220" y="89" as="targetPoint" />
          </mxGeometry>
        </mxCell>
        <mxCell id="qqYguHeqG1et18vwYGOu-47" value="=" style="text;html=1;align=center;verticalAlign=middle;resizable=0;points=[];autosize=1;strokeColor=none;fillColor=none;" vertex="1" parent="1">
          <mxGeometry x="-1117" y="20" width="30" height="30" as="geometry" />
        </mxCell>
        <mxCell id="qqYguHeqG1et18vwYGOu-48" value="q4" style="ellipse;whiteSpace=wrap;html=1;aspect=fixed;" vertex="1" parent="1">
          <mxGeometry x="-1000" y="10" width="40" height="40" as="geometry" />
        </mxCell>
        <mxCell id="qqYguHeqG1et18vwYGOu-49" value="" style="endArrow=classic;html=1;rounded=0;" edge="1" parent="1" source="qqYguHeqG1et18vwYGOu-44" target="qqYguHeqG1et18vwYGOu-48">
          <mxGeometry width="50" height="50" relative="1" as="geometry">
            <mxPoint x="-1183" y="78" as="sourcePoint" />
            <mxPoint x="-1137" y="50" as="targetPoint" />
          </mxGeometry>
        </mxCell>
        <mxCell id="qqYguHeqG1et18vwYGOu-50" value="a,b,c,&lt;br&gt;0,1,2,&lt;br&gt;true, false" style="text;html=1;align=center;verticalAlign=middle;resizable=0;points=[];autosize=1;strokeColor=none;fillColor=none;" vertex="1" parent="1">
          <mxGeometry x="-1060" y="-30" width="80" height="60" as="geometry" />
        </mxCell>
        <mxCell id="qqYguHeqG1et18vwYGOu-51" value="q5" style="ellipse;whiteSpace=wrap;html=1;aspect=fixed;" vertex="1" parent="1">
          <mxGeometry x="-930" y="10" width="40" height="40" as="geometry" />
        </mxCell>
        <mxCell id="qqYguHeqG1et18vwYGOu-52" value="" style="endArrow=classic;html=1;rounded=0;" edge="1" parent="1" source="qqYguHeqG1et18vwYGOu-48" target="qqYguHeqG1et18vwYGOu-51">
          <mxGeometry width="50" height="50" relative="1" as="geometry">
            <mxPoint x="-1130" y="40" as="sourcePoint" />
            <mxPoint x="-1080" y="40" as="targetPoint" />
          </mxGeometry>
        </mxCell>
        <mxCell id="qqYguHeqG1et18vwYGOu-53" value=";" style="text;html=1;align=center;verticalAlign=middle;resizable=0;points=[];autosize=1;strokeColor=none;fillColor=none;" vertex="1" parent="1">
          <mxGeometry x="-960" width="30" height="30" as="geometry" />
        </mxCell>
        <mxCell id="qqYguHeqG1et18vwYGOu-54" value="q6" style="ellipse;whiteSpace=wrap;html=1;aspect=fixed;" vertex="1" parent="1">
          <mxGeometry x="-860" y="10" width="40" height="40" as="geometry" />
        </mxCell>
        <mxCell id="qqYguHeqG1et18vwYGOu-55" value="" style="endArrow=classic;html=1;rounded=0;" edge="1" parent="1" source="qqYguHeqG1et18vwYGOu-51" target="qqYguHeqG1et18vwYGOu-54">
          <mxGeometry width="50" height="50" relative="1" as="geometry">
            <mxPoint x="-880" y="110" as="sourcePoint" />
            <mxPoint x="-830" y="60" as="targetPoint" />
          </mxGeometry>
        </mxCell>
        <mxCell id="qqYguHeqG1et18vwYGOu-56" value="a,b,c" style="text;html=1;align=center;verticalAlign=middle;resizable=0;points=[];autosize=1;strokeColor=none;fillColor=none;" vertex="1" parent="1">
          <mxGeometry x="-900" width="50" height="30" as="geometry" />
        </mxCell>
        <mxCell id="qqYguHeqG1et18vwYGOu-57" value="" style="endArrow=classic;html=1;rounded=0;" edge="1" parent="1" source="qqYguHeqG1et18vwYGOu-54" target="qqYguHeqG1et18vwYGOu-58">
          <mxGeometry width="50" height="50" relative="1" as="geometry">
            <mxPoint x="-880" y="40" as="sourcePoint" />
            <mxPoint x="-850" y="40" as="targetPoint" />
          </mxGeometry>
        </mxCell>
        <mxCell id="qqYguHeqG1et18vwYGOu-58" value="q7" style="ellipse;whiteSpace=wrap;html=1;aspect=fixed;" vertex="1" parent="1">
          <mxGeometry x="-790" y="10" width="40" height="40" as="geometry" />
        </mxCell>
        <mxCell id="qqYguHeqG1et18vwYGOu-59" value="==, !=,&amp;nbsp;&lt;br&gt;&amp;gt;, &amp;lt;&lt;br&gt;&amp;gt;=, &amp;lt;=" style="text;html=1;align=center;verticalAlign=middle;resizable=0;points=[];autosize=1;strokeColor=none;fillColor=none;" vertex="1" parent="1">
          <mxGeometry x="-835" y="-30" width="60" height="60" as="geometry" />
        </mxCell>
        <mxCell id="qqYguHeqG1et18vwYGOu-60" value="q8" style="ellipse;whiteSpace=wrap;html=1;aspect=fixed;" vertex="1" parent="1">
          <mxGeometry x="-720" y="10" width="40" height="40" as="geometry" />
        </mxCell>
        <mxCell id="qqYguHeqG1et18vwYGOu-61" value="" style="endArrow=classic;html=1;rounded=0;" edge="1" parent="1" target="qqYguHeqG1et18vwYGOu-60" source="qqYguHeqG1et18vwYGOu-58">
          <mxGeometry width="50" height="50" relative="1" as="geometry">
            <mxPoint x="-747" y="30" as="sourcePoint" />
            <mxPoint x="-847" y="50" as="targetPoint" />
          </mxGeometry>
        </mxCell>
        <mxCell id="qqYguHeqG1et18vwYGOu-62" value="a,b,c,&lt;br&gt;0,1,2,&lt;br&gt;true, false" style="text;html=1;align=center;verticalAlign=middle;resizable=0;points=[];autosize=1;strokeColor=none;fillColor=none;" vertex="1" parent="1">
          <mxGeometry x="-770" y="-30" width="80" height="60" as="geometry" />
        </mxCell>
        <mxCell id="qqYguHeqG1et18vwYGOu-69" value="" style="edgeStyle=orthogonalEdgeStyle;rounded=0;orthogonalLoop=1;jettySize=auto;html=1;" edge="1" parent="1" source="qqYguHeqG1et18vwYGOu-64" target="qqYguHeqG1et18vwYGOu-67">
          <mxGeometry relative="1" as="geometry" />
        </mxCell>
        <mxCell id="qqYguHeqG1et18vwYGOu-64" value="q9" style="ellipse;whiteSpace=wrap;html=1;aspect=fixed;" vertex="1" parent="1">
          <mxGeometry x="-660" y="10" width="40" height="40" as="geometry" />
        </mxCell>
        <mxCell id="qqYguHeqG1et18vwYGOu-65" value="" style="endArrow=classic;html=1;rounded=0;" edge="1" parent="1" target="qqYguHeqG1et18vwYGOu-64" source="qqYguHeqG1et18vwYGOu-60">
          <mxGeometry width="50" height="50" relative="1" as="geometry">
            <mxPoint x="-650" y="30" as="sourcePoint" />
            <mxPoint x="-770" y="40" as="targetPoint" />
          </mxGeometry>
        </mxCell>
        <mxCell id="qqYguHeqG1et18vwYGOu-66" value=";" style="text;html=1;align=center;verticalAlign=middle;resizable=0;points=[];autosize=1;strokeColor=none;fillColor=none;" vertex="1" parent="1">
          <mxGeometry x="-690" width="30" height="30" as="geometry" />
        </mxCell>
        <mxCell id="qqYguHeqG1et18vwYGOu-67" value="q10" style="ellipse;whiteSpace=wrap;html=1;aspect=fixed;" vertex="1" parent="1">
          <mxGeometry x="-600" y="10" width="40" height="40" as="geometry" />
        </mxCell>
        <mxCell id="qqYguHeqG1et18vwYGOu-68" value="" style="endArrow=classic;html=1;rounded=0;" edge="1" parent="1" target="qqYguHeqG1et18vwYGOu-67" source="qqYguHeqG1et18vwYGOu-64">
          <mxGeometry width="50" height="50" relative="1" as="geometry">
            <mxPoint x="-620" y="30" as="sourcePoint" />
            <mxPoint x="-710" y="40" as="targetPoint" />
          </mxGeometry>
        </mxCell>
        <mxCell id="qqYguHeqG1et18vwYGOu-70" value="++,&lt;br&gt;--" style="text;html=1;align=center;verticalAlign=middle;resizable=0;points=[];autosize=1;strokeColor=none;fillColor=none;" vertex="1" parent="1">
          <mxGeometry x="-630" y="-10" width="40" height="40" as="geometry" />
        </mxCell>
        <mxCell id="qqYguHeqG1et18vwYGOu-71" value="" style="endArrow=classic;html=1;rounded=0;" edge="1" parent="1" source="qqYguHeqG1et18vwYGOu-26" target="qqYguHeqG1et18vwYGOu-73">
          <mxGeometry width="50" height="50" relative="1" as="geometry">
            <mxPoint x="-1153" y="109" as="sourcePoint" />
            <mxPoint x="-1110.0000000000002" y="109.99999999999977" as="targetPoint" />
          </mxGeometry>
        </mxCell>
        <mxCell id="qqYguHeqG1et18vwYGOu-73" value="q11" style="ellipse;whiteSpace=wrap;html=1;aspect=fixed;" vertex="1" parent="1">
          <mxGeometry x="-1060" y="90" width="40" height="40" as="geometry" />
        </mxCell>
        <mxCell id="qqYguHeqG1et18vwYGOu-75" value="a,b,c" style="text;html=1;align=center;verticalAlign=middle;resizable=0;points=[];autosize=1;strokeColor=none;fillColor=none;" vertex="1" parent="1">
          <mxGeometry x="-1110" y="80" width="50" height="30" as="geometry" />
        </mxCell>
        <mxCell id="qqYguHeqG1et18vwYGOu-76" value="" style="endArrow=classic;html=1;rounded=0;" edge="1" parent="1" source="qqYguHeqG1et18vwYGOu-73" target="qqYguHeqG1et18vwYGOu-77">
          <mxGeometry width="50" height="50" relative="1" as="geometry">
            <mxPoint x="-1080" y="120" as="sourcePoint" />
            <mxPoint x="-1050" y="120" as="targetPoint" />
          </mxGeometry>
        </mxCell>
        <mxCell id="qqYguHeqG1et18vwYGOu-77" value="q12" style="ellipse;whiteSpace=wrap;html=1;aspect=fixed;" vertex="1" parent="1">
          <mxGeometry x="-990" y="90" width="40" height="40" as="geometry" />
        </mxCell>
        <mxCell id="qqYguHeqG1et18vwYGOu-78" value="==, !=,&amp;nbsp;&lt;br&gt;&amp;gt;, &amp;lt;&lt;br&gt;&amp;gt;=, &amp;lt;=" style="text;html=1;align=center;verticalAlign=middle;resizable=0;points=[];autosize=1;strokeColor=none;fillColor=none;" vertex="1" parent="1">
          <mxGeometry x="-1035" y="50" width="60" height="60" as="geometry" />
        </mxCell>
        <mxCell id="qqYguHeqG1et18vwYGOu-79" value="q13" style="ellipse;whiteSpace=wrap;html=1;aspect=fixed;" vertex="1" parent="1">
          <mxGeometry x="-920" y="90" width="40" height="40" as="geometry" />
        </mxCell>
        <mxCell id="qqYguHeqG1et18vwYGOu-80" value="" style="endArrow=classic;html=1;rounded=0;" edge="1" parent="1" source="qqYguHeqG1et18vwYGOu-77" target="qqYguHeqG1et18vwYGOu-79">
          <mxGeometry width="50" height="50" relative="1" as="geometry">
            <mxPoint x="-947" y="110" as="sourcePoint" />
            <mxPoint x="-1047" y="130" as="targetPoint" />
          </mxGeometry>
        </mxCell>
        <mxCell id="qqYguHeqG1et18vwYGOu-81" value="a,b,c,&lt;br&gt;0,1,2,&lt;br&gt;true, false" style="text;html=1;align=center;verticalAlign=middle;resizable=0;points=[];autosize=1;strokeColor=none;fillColor=none;" vertex="1" parent="1">
          <mxGeometry x="-970" y="50" width="80" height="60" as="geometry" />
        </mxCell>
        <mxCell id="qqYguHeqG1et18vwYGOu-82" value="q14" style="ellipse;whiteSpace=wrap;html=1;aspect=fixed;" vertex="1" parent="1">
          <mxGeometry x="-920" y="180" width="40" height="40" as="geometry" />
        </mxCell>
        <mxCell id="qqYguHeqG1et18vwYGOu-83" value="" style="endArrow=classic;html=1;rounded=0;" edge="1" parent="1" source="qqYguHeqG1et18vwYGOu-79" target="qqYguHeqG1et18vwYGOu-82">
          <mxGeometry width="50" height="50" relative="1" as="geometry">
            <mxPoint x="-820" y="180" as="sourcePoint" />
            <mxPoint x="-770" y="130" as="targetPoint" />
          </mxGeometry>
        </mxCell>
        <mxCell id="qqYguHeqG1et18vwYGOu-84" value="" style="endArrow=classic;html=1;rounded=0;" edge="1" parent="1" source="qqYguHeqG1et18vwYGOu-67" target="qqYguHeqG1et18vwYGOu-82">
          <mxGeometry width="50" height="50" relative="1" as="geometry">
            <mxPoint x="-890" y="140" as="sourcePoint" />
            <mxPoint x="-890" y="180" as="targetPoint" />
          </mxGeometry>
        </mxCell>
        <mxCell id="qqYguHeqG1et18vwYGOu-85" value="{" style="text;html=1;align=center;verticalAlign=middle;resizable=0;points=[];autosize=1;strokeColor=none;fillColor=none;" vertex="1" parent="1">
          <mxGeometry x="-930" y="140" width="30" height="30" as="geometry" />
        </mxCell>
        <mxCell id="qqYguHeqG1et18vwYGOu-86" value="{" style="text;html=1;align=center;verticalAlign=middle;resizable=0;points=[];autosize=1;strokeColor=none;fillColor=none;" vertex="1" parent="1">
          <mxGeometry x="-790" y="95" width="30" height="30" as="geometry" />
        </mxCell>
        <mxCell id="qqYguHeqG1et18vwYGOu-87" value="q15" style="ellipse;whiteSpace=wrap;html=1;aspect=fixed;" vertex="1" parent="1">
          <mxGeometry x="-920" y="250" width="40" height="40" as="geometry" />
        </mxCell>
        <mxCell id="qqYguHeqG1et18vwYGOu-88" value="" style="endArrow=classic;html=1;rounded=0;" edge="1" parent="1" target="qqYguHeqG1et18vwYGOu-87" source="qqYguHeqG1et18vwYGOu-82">
          <mxGeometry width="50" height="50" relative="1" as="geometry">
            <mxPoint x="-900" y="220" as="sourcePoint" />
            <mxPoint x="-770" y="220" as="targetPoint" />
          </mxGeometry>
        </mxCell>
        <mxCell id="qqYguHeqG1et18vwYGOu-89" value="fmt.Print(a),&lt;br&gt;a=a+b" style="text;html=1;align=center;verticalAlign=middle;resizable=0;points=[];autosize=1;strokeColor=none;fillColor=none;" vertex="1" parent="1">
          <mxGeometry x="-980" y="215" width="90" height="40" as="geometry" />
        </mxCell>
        <mxCell id="qqYguHeqG1et18vwYGOu-91" value="" style="endArrow=classic;html=1;rounded=0;" edge="1" parent="1" source="qqYguHeqG1et18vwYGOu-87">
          <mxGeometry width="50" height="50" relative="1" as="geometry">
            <mxPoint x="-900" y="310" as="sourcePoint" />
            <mxPoint x="-900" y="320" as="targetPoint" />
          </mxGeometry>
        </mxCell>
        <mxCell id="qqYguHeqG1et18vwYGOu-92" value="}" style="text;html=1;align=center;verticalAlign=middle;resizable=0;points=[];autosize=1;strokeColor=none;fillColor=none;" vertex="1" parent="1">
          <mxGeometry x="-930" y="290" width="30" height="30" as="geometry" />
        </mxCell>
      </root>
    </mxGraphModel>
  </diagram>
</mxfile>
